<svg width="416" height="21" viewBox="0 0 416 21" fill="none" xmlns="http://www.w3.org/2000/svg">
<path d="M5.90625 11.5078L0 1.23047H3.14062L7.27734 8.46094L11.4258 1.23047H14.5664L8.63672 11.5078V19.3242H5.90625V11.5078Z" fill="#6A6A6A"/>
<path d="M14.8477 10.1953C14.8477 7.64844 15.7812 5.46094 17.6484 3.63281C19.5078 1.80469 21.7422 0.890625 24.3516 0.890625C26.9297 0.890625 29.1406 1.8125 30.9844 3.65625C32.8359 5.5 33.7617 7.71484 33.7617 10.3008C33.7617 12.9023 32.832 15.1094 30.9727 16.9219C29.1055 18.7422 26.8516 19.6523 24.2109 19.6523C21.875 19.6523 19.7773 18.8438 17.918 17.2266C15.8711 15.4375 14.8477 13.0938 14.8477 10.1953ZM17.6016 10.2305C17.6016 12.2305 18.2734 13.875 19.6172 15.1641C20.9531 16.4531 22.4961 17.0977 24.2461 17.0977C26.1445 17.0977 27.7461 16.4414 29.0508 15.1289C30.3555 13.8008 31.0078 12.1836 31.0078 10.2773C31.0078 8.34766 30.3633 6.73047 29.0742 5.42578C27.793 4.11328 26.207 3.45703 24.3164 3.45703C22.4336 3.45703 20.8438 4.11328 19.5469 5.42578C18.25 6.72266 17.6016 8.32422 17.6016 10.2305Z" fill="#6A6A6A"/>
<path d="M39.9258 1.23047V12.1289C39.9258 13.6836 40.1797 14.8203 40.6875 15.5391C41.4453 16.5781 42.5117 17.0977 43.8867 17.0977C45.2695 17.0977 46.3398 16.5781 47.0977 15.5391C47.6055 14.8438 47.8594 13.707 47.8594 12.1289V1.23047H50.5898V12.8789C50.5898 14.7852 49.9961 16.3555 48.8086 17.5898C47.4727 18.9648 45.832 19.6523 43.8867 19.6523C41.9414 19.6523 40.3047 18.9648 38.9766 17.5898C37.7891 16.3555 37.1953 14.7852 37.1953 12.8789V1.23047H39.9258Z" fill="#6A6A6A"/>
<path d="M61.0664 11.6133L66.668 19.3242H63.3281L58.1602 11.918H57.668V19.3242H54.9375V1.23047H58.1367C60.5273 1.23047 62.2539 1.67969 63.3164 2.57812C64.4883 3.57812 65.0742 4.89844 65.0742 6.53906C65.0742 7.82031 64.707 8.92188 63.9727 9.84375C63.2383 10.7656 62.2695 11.3555 61.0664 11.6133ZM57.668 9.53906H58.5352C61.1211 9.53906 62.4141 8.55078 62.4141 6.57422C62.4141 4.72266 61.1562 3.79688 58.6406 3.79688H57.668V9.53906Z" fill="#6A6A6A"/>
<path d="M86.1094 9.90234H93.5859V10.5C93.5859 11.8594 93.4258 13.0625 93.1055 14.1094C92.793 15.0781 92.2656 15.9844 91.5234 16.8281C89.8438 18.7188 87.707 19.6641 85.1133 19.6641C82.582 19.6641 80.4141 18.75 78.6094 16.9219C76.8047 15.0859 75.9023 12.8828 75.9023 10.3125C75.9023 7.6875 76.8203 5.46094 78.6562 3.63281C80.4922 1.79688 82.7266 0.878906 85.3594 0.878906C86.7734 0.878906 88.0938 1.16797 89.3203 1.74609C90.4922 2.32422 91.6445 3.26172 92.7773 4.55859L90.832 6.42188C89.3477 4.44531 87.5391 3.45703 85.4062 3.45703C83.4922 3.45703 81.8867 4.11719 80.5898 5.4375C79.293 6.73438 78.6445 8.35938 78.6445 10.3125C78.6445 12.3281 79.3672 13.9883 80.8125 15.293C82.1641 16.5039 83.6289 17.1094 85.207 17.1094C86.5508 17.1094 87.7578 16.6562 88.8281 15.75C89.8984 14.8359 90.4961 13.7422 90.6211 12.4688H86.1094V9.90234Z" fill="#6A6A6A"/>
<path d="M99.7617 1.23047V12.1289C99.7617 13.6836 100.016 14.8203 100.523 15.5391C101.281 16.5781 102.348 17.0977 103.723 17.0977C105.105 17.0977 106.176 16.5781 106.934 15.5391C107.441 14.8438 107.695 13.707 107.695 12.1289V1.23047H110.426V12.8789C110.426 14.7852 109.832 16.3555 108.645 17.5898C107.309 18.9648 105.668 19.6523 103.723 19.6523C101.777 19.6523 100.141 18.9648 98.8125 17.5898C97.625 16.3555 97.0312 14.7852 97.0312 12.8789V1.23047H99.7617Z" fill="#6A6A6A"/>
<path d="M117.504 1.23047V19.3242H114.773V1.23047H117.504Z" fill="#6A6A6A"/>
<path d="M121.852 19.3242V1.23047H125.648C127.469 1.23047 128.906 1.41016 129.961 1.76953C131.094 2.12109 132.121 2.71875 133.043 3.5625C134.91 5.26562 135.844 7.50391 135.844 10.2773C135.844 13.0586 134.871 15.3086 132.926 17.0273C131.949 17.8867 130.926 18.4844 129.855 18.8203C128.855 19.1562 127.438 19.3242 125.602 19.3242H121.852ZM124.582 16.7578H125.812C127.039 16.7578 128.059 16.6289 128.871 16.3711C129.684 16.0977 130.418 15.6641 131.074 15.0703C132.418 13.8438 133.09 12.2461 133.09 10.2773C133.09 8.29297 132.426 6.68359 131.098 5.44922C129.902 4.34766 128.141 3.79688 125.812 3.79688H124.582V16.7578Z" fill="#6A6A6A"/>
<path d="M149.273 3.79688H142.02V8.14453H149.062V10.7109H142.02V16.7578H149.273V19.3242H139.289V1.23047H149.273V3.79688Z" fill="#6A6A6A"/>
<path d="M159.363 10.1953C159.363 7.64844 160.297 5.46094 162.164 3.63281C164.023 1.80469 166.258 0.890625 168.867 0.890625C171.445 0.890625 173.656 1.8125 175.5 3.65625C177.352 5.5 178.277 7.71484 178.277 10.3008C178.277 12.9023 177.348 15.1094 175.488 16.9219C173.621 18.7422 171.367 19.6523 168.727 19.6523C166.391 19.6523 164.293 18.8438 162.434 17.2266C160.387 15.4375 159.363 13.0938 159.363 10.1953ZM162.117 10.2305C162.117 12.2305 162.789 13.875 164.133 15.1641C165.469 16.4531 167.012 17.0977 168.762 17.0977C170.66 17.0977 172.262 16.4414 173.566 15.1289C174.871 13.8008 175.523 12.1836 175.523 10.2773C175.523 8.34766 174.879 6.73047 173.59 5.42578C172.309 4.11328 170.723 3.45703 168.832 3.45703C166.949 3.45703 165.359 4.11328 164.062 5.42578C162.766 6.72266 162.117 8.32422 162.117 10.2305Z" fill="#6A6A6A"/>
<path d="M181.711 19.3242V0L194.906 13.8047V1.23047H197.637V20.4258L184.441 6.65625V19.3242H181.711Z" fill="#6A6A6A"/>
<path d="M214.383 3.79688V19.3242H211.652V3.79688H207.492V1.23047H218.531V3.79688H214.383Z" fill="#6A6A6A"/>
<path d="M223.699 8.30859H231.504V1.23047H234.234V19.3242H231.504V10.875H223.699V19.3242H220.969V1.23047H223.699V8.30859Z" fill="#6A6A6A"/>
<path d="M248.555 3.79688H241.301V8.14453H248.344V10.7109H241.301V16.7578H248.555V19.3242H238.57V1.23047H248.555V3.79688Z" fill="#6A6A6A"/>
<path d="M269.777 3.92578L267.562 5.23828C267.148 4.51953 266.754 4.05078 266.379 3.83203C265.988 3.58203 265.484 3.45703 264.867 3.45703C264.109 3.45703 263.48 3.67188 262.98 4.10156C262.48 4.52344 262.23 5.05469 262.23 5.69531C262.23 6.57812 262.887 7.28906 264.199 7.82812L266.004 8.56641C267.473 9.16016 268.547 9.88672 269.227 10.7461C269.906 11.5977 270.246 12.6445 270.246 13.8867C270.246 15.5508 269.691 16.9258 268.582 18.0117C267.465 19.1055 266.078 19.6523 264.422 19.6523C262.852 19.6523 261.555 19.1875 260.531 18.2578C259.523 17.3281 258.895 16.0195 258.645 14.332L261.41 13.7227C261.535 14.7852 261.754 15.5195 262.066 15.9258C262.629 16.707 263.449 17.0977 264.527 17.0977C265.379 17.0977 266.086 16.8125 266.648 16.2422C267.211 15.6719 267.492 14.9492 267.492 14.0742C267.492 13.7227 267.441 13.4023 267.34 13.1133C267.246 12.8164 267.094 12.5469 266.883 12.3047C266.68 12.0547 266.414 11.8242 266.086 11.6133C265.758 11.3945 265.367 11.1875 264.914 10.9922L263.168 10.2656C260.691 9.21875 259.453 7.6875 259.453 5.67188C259.453 4.3125 259.973 3.17578 261.012 2.26172C262.051 1.33984 263.344 0.878906 264.891 0.878906C266.977 0.878906 268.605 1.89453 269.777 3.92578Z" fill="#6A6A6A"/>
<path d="M278.883 3.79688V19.3242H276.152V3.79688H271.992V1.23047H283.031V3.79688H278.883Z" fill="#6A6A6A"/>
<path d="M295.113 14.9297H287.367L285.352 19.3242H282.41L291.363 0.09375L300 19.3242H297.012L295.113 14.9297ZM294 12.3633L291.316 6.21094L288.504 12.3633H294Z" fill="#6A6A6A"/>
<path d="M308.402 11.6133L314.004 19.3242H310.664L305.496 11.918H305.004V19.3242H302.273V1.23047H305.473C307.863 1.23047 309.59 1.67969 310.652 2.57812C311.824 3.57812 312.41 4.89844 312.41 6.53906C312.41 7.82031 312.043 8.92188 311.309 9.84375C310.574 10.7656 309.605 11.3555 308.402 11.6133ZM305.004 9.53906H305.871C308.457 9.53906 309.75 8.55078 309.75 6.57422C309.75 4.72266 308.492 3.79688 305.977 3.79688H305.004V9.53906Z" fill="#6A6A6A"/>
<path d="M321.516 3.79688V19.3242H318.785V3.79688H314.625V1.23047H325.664V3.79688H321.516Z" fill="#6A6A6A"/>
<path d="M330.832 1.23047V12.1289C330.832 13.6836 331.086 14.8203 331.594 15.5391C332.352 16.5781 333.418 17.0977 334.793 17.0977C336.176 17.0977 337.246 16.5781 338.004 15.5391C338.512 14.8438 338.766 13.707 338.766 12.1289V1.23047H341.496V12.8789C341.496 14.7852 340.902 16.3555 339.715 17.5898C338.379 18.9648 336.738 19.6523 334.793 19.6523C332.848 19.6523 331.211 18.9648 329.883 17.5898C328.695 16.3555 328.102 14.7852 328.102 12.8789V1.23047H330.832Z" fill="#6A6A6A"/>
<path d="M348.574 11.9766V19.3242H345.844V1.23047H348.938C350.453 1.23047 351.598 1.33594 352.371 1.54688C353.152 1.75781 353.84 2.15625 354.434 2.74219C355.473 3.75781 355.992 5.03906 355.992 6.58594C355.992 8.24219 355.438 9.55469 354.328 10.5234C353.219 11.4922 351.723 11.9766 349.84 11.9766H348.574ZM348.574 9.44531H349.594C352.102 9.44531 353.355 8.48047 353.355 6.55078C353.355 4.68359 352.062 3.75 349.477 3.75H348.574V9.44531Z" fill="#6A6A6A"/>
<path d="M372.34 11.6133L377.941 19.3242H374.602L369.434 11.918H368.941V19.3242H366.211V1.23047H369.41C371.801 1.23047 373.527 1.67969 374.59 2.57812C375.762 3.57812 376.348 4.89844 376.348 6.53906C376.348 7.82031 375.98 8.92188 375.246 9.84375C374.512 10.7656 373.543 11.3555 372.34 11.6133ZM368.941 9.53906H369.809C372.395 9.53906 373.688 8.55078 373.688 6.57422C373.688 4.72266 372.43 3.79688 369.914 3.79688H368.941V9.53906Z" fill="#6A6A6A"/>
<path d="M383.402 1.23047V19.3242H380.672V1.23047H383.402Z" fill="#6A6A6A"/>
<path d="M387.75 19.3242V1.23047H391.547C393.367 1.23047 394.805 1.41016 395.859 1.76953C396.992 2.12109 398.02 2.71875 398.941 3.5625C400.809 5.26562 401.742 7.50391 401.742 10.2773C401.742 13.0586 400.77 15.3086 398.824 17.0273C397.848 17.8867 396.824 18.4844 395.754 18.8203C394.754 19.1562 393.336 19.3242 391.5 19.3242H387.75ZM390.48 16.7578H391.711C392.938 16.7578 393.957 16.6289 394.77 16.3711C395.582 16.0977 396.316 15.6641 396.973 15.0703C398.316 13.8438 398.988 12.2461 398.988 10.2773C398.988 8.29297 398.324 6.68359 396.996 5.44922C395.801 4.34766 394.039 3.79688 391.711 3.79688H390.48V16.7578Z" fill="#6A6A6A"/>
<path d="M415.172 3.79688H407.918V8.14453H414.961V10.7109H407.918V16.7578H415.172V19.3242H405.188V1.23047H415.172V3.79688Z" fill="#6A6A6A"/>
</svg>
