<svg width="417" height="50" viewBox="0 0 417 50" fill="none" xmlns="http://www.w3.org/2000/svg">
<g clip-path="url(#clip0_60_152)">
<path d="M407.403 18.8273L396.876 0H384.49L401.485 29.6612L407.403 18.8273Z" fill="#93BBDE"/>
<path d="M406.483 5.68066L417 24.508L411.082 35.3419L394.087 5.68066H406.483Z" fill="#172C53"/>
<path d="M7.75758 30.564H18.9941V18.8679H26.7517V49.158H18.9941V36.6707H7.75758V49.158H0V18.8679H7.75758V30.564Z" fill="#172C53"/>
<path d="M40.7373 18.8679V49.158H32.9897V18.8679H40.7373Z" fill="#172C53"/>
<path d="M61.5208 32.2074H76.916C76.9259 33.6707 76.8592 35.1335 76.7161 36.5896C76.6018 37.8352 76.3365 39.0617 75.9263 40.2414C75.4127 41.7609 74.6488 43.1809 73.6671 44.4411C72.7322 45.6403 71.6031 46.6694 70.3281 47.4843C69.0189 48.3116 67.5977 48.9404 66.1094 49.3508C64.5355 49.7828 62.9114 49.9977 61.2809 49.9899C59.1085 50.0169 56.9508 49.6245 54.9229 48.8335C53.0663 48.1019 51.3828 46.9811 49.9823 45.5443C48.5818 44.1074 47.4958 42.3869 46.7954 40.495C46.007 38.4113 45.6168 36.1942 45.6458 33.9623C45.6177 31.7488 46.001 29.5497 46.7754 27.4802C47.4722 25.577 48.5631 23.8474 49.9744 22.4082C51.4058 20.9902 53.1064 19.8824 54.9729 19.152C57.0602 18.3483 59.2785 17.9525 61.5108 17.9854C64.3689 17.9142 67.1943 18.6143 69.6983 20.0142C72.1572 21.5013 74.1076 23.7176 75.2865 26.3644L67.9788 29.5192C67.4666 28.0791 66.5359 26.8305 65.3097 25.9383C64.1959 25.211 62.8952 24.8334 61.5708 24.8529C60.4789 24.838 59.3971 25.0665 58.4018 25.5224C57.442 25.9427 56.5903 26.5814 55.9126 27.3889C55.2074 28.263 54.6714 29.2646 54.3331 30.3409C53.6015 32.7564 53.5737 35.3351 54.2531 37.7663C54.5554 38.8116 55.0619 39.7845 55.7426 40.6269C56.4065 41.4322 57.2447 42.0709 58.1919 42.4934C59.2706 42.9517 60.4317 43.1763 61.6008 43.1528C62.3452 43.1579 63.0873 43.0694 63.8101 42.889C64.4968 42.7346 65.1482 42.4489 65.7295 42.0471C66.298 41.6652 66.7788 41.1635 67.1391 40.5762C67.5341 39.8836 67.789 39.118 67.8889 38.3242H61.5208V32.2074Z" fill="#172C53"/>
<path d="M89.582 30.564H100.789V18.8679H108.546V49.158H100.789V36.6707H89.582V49.158H81.8245V18.8679H89.582V30.564Z" fill="#172C53"/>
<path d="M131.789 25.5427H122.562V30.6147H131.269V37.2794H122.562V42.5035H131.789V49.1682H114.794V18.8679H131.789V25.5427Z" fill="#172C53"/>
<path d="M162.189 49.158H152.532L145.125 37.533V49.158H137.367V18.8679H149.443C150.927 18.8382 152.402 19.0929 153.792 19.6186C154.952 20.0523 156.001 20.7457 156.861 21.6474C157.666 22.4981 158.286 23.5106 158.681 24.6196C159.099 25.7759 159.309 26.9992 159.3 28.2309C159.39 30.2313 158.812 32.204 157.661 33.8304C156.427 35.3494 154.708 36.3828 152.802 36.7519L162.189 49.158ZM145.125 32.461H146.594C147.84 32.5416 149.077 32.2028 150.113 31.4973C150.521 31.1689 150.846 30.7462 151.06 30.2643C151.274 29.7825 151.371 29.2557 151.343 28.7279C151.372 28.1987 151.275 27.6701 151.061 27.1865C150.847 26.7029 150.522 26.2784 150.113 25.9485C149.083 25.225 147.846 24.8683 146.594 24.9341H145.125V32.461Z" fill="#172C53"/>
<path d="M177.585 18.8679L184.792 37.3098L192.04 18.8679H200.468L187.881 49.158H181.703L169.157 18.8679H177.585Z" fill="#172C53"/>
<path d="M220.581 25.5427H211.354V30.6147H220.061V37.2794H211.354V42.5035H220.581V49.1682H203.587V18.8679H220.581V25.5427Z" fill="#172C53"/>
<path d="M226.159 49.158V18.8679H233.927L248.263 37.3909V18.8679H255.98V49.158H248.263L233.927 30.6452V49.158H226.159Z" fill="#172C53"/>
<path d="M273.545 25.5427V49.158H265.787V25.5427H259.409V18.8679H279.913V25.5427H273.545Z" fill="#172C53"/>
<path d="M291.119 18.8679V35.3418C291.119 36.2244 291.119 37.1272 291.219 38.0503C291.275 38.9176 291.478 39.7686 291.819 40.566C292.15 41.3175 292.692 41.9529 293.379 42.392C294.293 42.9081 295.333 43.1508 296.378 43.0919C297.423 43.1564 298.464 42.9134 299.377 42.392C300.042 41.9417 300.571 41.3132 300.906 40.5762C301.255 39.781 301.461 38.9291 301.516 38.0605C301.576 37.1373 301.616 36.2345 301.616 35.352V18.8679H309.334V36.4273C309.334 41.1611 308.271 44.6034 306.145 46.7539C304.019 48.9044 300.753 49.9865 296.348 50C291.936 50 288.663 48.918 286.531 46.7539C284.398 44.5898 283.328 41.1476 283.322 36.4273V18.8679H291.119Z" fill="#172C53"/>
<path d="M340.454 49.158H330.787L323.389 37.533V49.158H315.632V18.8679H327.698C329.184 18.8374 330.663 19.0921 332.056 19.6186C333.216 20.0547 334.264 20.7478 335.126 21.6474C335.927 22.5008 336.546 23.5126 336.945 24.6196C337.36 25.7765 337.567 26.9998 337.555 28.2309C337.644 30.2344 337.059 32.2091 335.895 33.8304C334.665 35.3487 332.95 36.3823 331.047 36.7519L340.454 49.158ZM323.389 32.4609H324.899C326.147 32.5408 327.387 32.2022 328.428 31.4973C328.834 31.1673 329.157 30.7442 329.371 30.2628C329.585 29.7813 329.683 29.2553 329.657 28.7279C329.684 28.1989 329.587 27.6708 329.373 27.1875C329.159 26.7042 328.835 26.2795 328.428 25.9485C327.393 25.2256 326.153 24.8691 324.899 24.9341H323.439L323.389 32.4609Z" fill="#172C53"/>
<path d="M360.678 25.5427H351.45V30.6147H360.168V37.2794H351.45V42.5035H360.678V49.1682H343.683V18.8679H360.678V25.5427Z" fill="#172C53"/>
<path d="M382.651 26.6281C381.889 25.9797 381.032 25.456 380.111 25.0761C379.333 24.7556 378.502 24.587 377.662 24.579C376.787 24.5392 375.923 24.7923 375.203 25.2993C374.904 25.5106 374.661 25.7932 374.496 26.1223C374.33 26.4513 374.247 26.8166 374.253 27.1861C374.237 27.6754 374.409 28.1519 374.733 28.5149C375.091 28.8917 375.515 29.1978 375.983 29.4178C376.541 29.6918 377.124 29.9126 377.722 30.0771C378.362 30.2699 379.002 30.4626 379.642 30.6858C381.772 31.284 383.696 32.471 385.2 34.1145C386.429 35.7103 387.054 37.7008 386.959 39.7241C386.983 41.1655 386.721 42.597 386.19 43.9339C385.691 45.1741 384.918 46.2812 383.93 47.1698C382.87 48.1109 381.632 48.822 380.291 49.2595C378.713 49.7765 377.061 50.0267 375.403 50C371.632 50.0101 367.953 48.8179 364.886 46.5916L368.205 40.2415C369.235 41.2099 370.409 42.0075 371.684 42.605C372.742 43.0954 373.89 43.3546 375.053 43.3658C376.073 43.4497 377.085 43.1338 377.882 42.4833C378.322 42.0978 378.627 41.5782 378.751 41.0021C378.876 40.4261 378.813 39.8246 378.572 39.2879C378.385 38.9208 378.114 38.6044 377.782 38.3648C377.337 38.0372 376.849 37.7743 376.333 37.5837C375.743 37.3403 375.023 37.0765 374.173 36.7823C373.174 36.4577 372.174 36.1027 371.174 35.7679C370.243 35.3906 369.376 34.8668 368.605 34.2159C367.861 33.5158 367.275 32.6612 366.886 31.7103C366.385 30.5369 366.146 29.2656 366.186 27.9875C366.17 26.599 366.422 25.2208 366.926 23.9298C367.387 22.7498 368.089 21.6818 368.985 20.7953C369.915 19.8996 371.018 19.2089 372.224 18.7665C373.604 18.2714 375.059 18.0276 376.523 18.0463C378.085 18.0593 379.64 18.2706 381.151 18.6752C382.766 19.0873 384.324 19.7006 385.79 20.5011L382.651 26.6281Z" fill="#172C53"/>
</g>
<defs>
<clipPath id="clip0_60_152">
<rect width="417" height="50" fill="white"/>
</clipPath>
</defs>
</svg>
